<svg width="20" height="20" viewBox="0 0 20 20" fill="none" xmlns="http://www.w3.org/2000/svg">
<path fill-rule="evenodd" clip-rule="evenodd" d="M5.71429 19H13.5314C16.4028 19 18.6057 17.9629 17.98 13.7886L17.2514 8.13145C16.8657 6.0486 15.5371 5.25146 14.3714 5.25146H4.84C3.65715 5.25146 2.40572 6.1086 1.96001 8.13145L1.23144 13.7886C0.700012 17.4914 2.84287 19 5.71429 19Z" stroke="currentcolor" stroke-width="2" stroke-linecap="round" stroke-linejoin="round"/>
<path d="M5.58578 5.04574C5.58578 2.81136 7.39711 1.00004 9.63149 1.00004V1.00004C10.7074 0.995477 11.7409 1.41971 12.5033 2.17892C13.2658 2.93813 13.6943 3.96978 13.6943 5.04574V5.04574" stroke="currentcolor" stroke-width="2" stroke-linecap="round" stroke-linejoin="round"/>
<path d="M6.85469 9.26288H6.89755" stroke="currentcolor" stroke-width="2" stroke-linecap="round" stroke-linejoin="round"/>
<path d="M12.3146 9.26287H12.3575" stroke="currentcolor" stroke-width="2" stroke-linecap="round" stroke-linejoin="round"/>
</svg>
