<svg width="20" height="22" viewBox="0 0 20 22" fill="none" xmlns="http://www.w3.org/2000/svg">
<path fill-rule="evenodd" clip-rule="evenodd" d="M5.87383 20.5H14.2217C17.288 20.5 19.6404 19.3924 18.9722 14.9348L18.1942 8.89359C17.7823 6.66934 16.3635 5.81808 15.1187 5.81808H4.94019C3.67703 5.81808 2.34065 6.73341 1.86468 8.89359L1.08665 14.9348C0.519139 18.889 2.80747 20.5 5.87383 20.5Z" stroke="#656565" stroke-width="1.5" stroke-linecap="round" stroke-linejoin="round"/>
<path d="M5.73647 5.5984C5.73647 3.21232 7.67076 1.27803 10.0568 1.27803V1.27803C11.2058 1.27316 12.3094 1.72619 13.1236 2.53695C13.9378 3.3477 14.3955 4.44939 14.3955 5.5984V5.5984" stroke="#656565" stroke-width="1.5" stroke-linecap="round" stroke-linejoin="round"/>
<path d="M7.09123 10.1018H7.13699" stroke="#656565" stroke-width="1.5" stroke-linecap="round" stroke-linejoin="round"/>
<path d="M12.9218 10.1018H12.9676" stroke="#656565" stroke-width="1.5" stroke-linecap="round" stroke-linejoin="round"/>
</svg>
