<svg width="22" height="23" viewBox="0 0 22 23" fill="none" xmlns="http://www.w3.org/2000/svg">
<path d="M20.9993 5.73195C20.0641 4.69778 18.5019 4.18069 16.2355 4.18069H15.9715V4.13668C15.9715 2.28838 15.9715 0 11.8348 0H10.1625C6.02581 0 6.02581 2.29938 6.02581 4.13668V4.19169H5.76177C3.48439 4.19169 1.93314 4.70878 0.997984 5.74295C-0.0911965 6.95315 -0.0581912 8.58142 0.051827 9.6926L0.0628288 9.76961L0.172847 10.9248C0.183849 10.9358 0.205853 10.9578 0.227856 10.9688C0.590916 11.2109 0.964978 11.4529 1.36104 11.6729C1.51507 11.7719 1.6801 11.86 1.84512 11.948C3.72643 12.9821 5.79478 13.6753 7.89612 14.0163C7.99514 15.0505 8.44621 16.2607 10.8556 16.2607C13.265 16.2607 13.7381 15.0615 13.8151 13.9943C16.0595 13.6313 18.2268 12.8501 20.1852 11.7059C20.2512 11.6729 20.2952 11.6399 20.3502 11.6069C20.8563 11.3209 21.3293 11.0128 21.7914 10.6718C21.8134 10.6608 21.8354 10.6388 21.8464 10.6168L21.8904 10.2207L21.9454 9.7036C21.9565 9.63759 21.9564 9.58258 21.9675 9.50557C22.0555 8.39439 22.0335 6.87614 20.9993 5.73195ZM12.1978 13.2682C12.1978 14.4344 12.1978 14.6104 10.8446 14.6104C9.49139 14.6104 9.49139 14.4014 9.49139 13.2792V11.893H12.1978V13.2682ZM7.59907 4.18069V4.13668C7.59907 2.26638 7.59907 1.57326 10.1625 1.57326H11.8348C14.3982 1.57326 14.3982 2.27738 14.3982 4.13668V4.19169H7.59907V4.18069Z" fill="#B1040E"/>
<path opacity="0.4" d="M20.3512 11.5849C20.2962 11.6179 20.2411 11.6509 20.1861 11.6839C18.2278 12.8281 16.0605 13.5982 13.8161 13.9723C13.7281 15.0285 13.266 16.2387 10.8566 16.2387C8.4472 16.2387 7.98512 15.0395 7.89711 13.9943C5.79576 13.6642 3.72742 12.9711 1.8461 11.9259C1.68108 11.8379 1.51605 11.7499 1.36202 11.6509C0.965959 11.4309 0.591897 11.1888 0.228837 10.9468C0.206834 10.9358 0.18483 10.9138 0.173828 10.9028L0.844939 18.065C1.07598 20.2543 1.97813 22.5097 6.81893 22.5097H15.2023C20.0431 22.5097 20.9453 20.2543 21.1763 18.054L21.8694 10.5947C21.8584 10.6167 21.8364 10.6387 21.8144 10.6497C21.3413 10.9908 20.8572 11.3098 20.3512 11.5849Z" fill="#B1040E"/>
</svg>
