<svg width="24" height="28" viewBox="0 0 24 28" fill="none" xmlns="http://www.w3.org/2000/svg">
<path d="M14.1808 15.21H9.81999C9.25062 15.21 8.78906 15.6577 8.78906 16.21V26.9999C8.78906 27.5522 9.25062 27.9999 9.81999 27.9999H14.1808C14.7502 27.9999 15.2117 27.5522 15.2117 26.9999V16.21C15.2117 15.6577 14.7502 15.21 14.1808 15.21Z" fill="#B1040E"/>
<path d="M5.39175 9.39997H1.03093C0.895417 9.39951 0.761148 9.42507 0.635859 9.47516C0.510569 9.52526 0.396735 9.5989 0.300911 9.69185C0.205087 9.7848 0.129168 9.89522 0.077525 10.0167C0.0258823 10.1383 -0.000463116 10.2685 6.16053e-06 10.4V26.9999C-2.97329e-05 27.1313 0.0266112 27.2613 0.0784074 27.3827C0.130204 27.504 0.206139 27.6143 0.301877 27.7071C0.397614 27.8 0.511277 27.8737 0.636371 27.9239C0.761465 27.9741 0.895539 28 1.03093 27.9999H5.39175C5.66492 27.9992 5.92668 27.8936 6.11984 27.7062C6.313 27.5188 6.42188 27.2649 6.42267 26.9999V10.4C6.42271 10.2686 6.39607 10.1386 6.34428 10.0172C6.29248 9.8959 6.21655 9.78565 6.12081 9.69278C6.02507 9.59991 5.91141 9.52626 5.78631 9.47601C5.66122 9.42577 5.52714 9.39993 5.39175 9.39997Z" fill="#B1040E"/>
<path d="M22.9699 19.8151H18.6091C18.3359 19.8158 18.0741 19.9214 17.881 20.1088C17.6878 20.2962 17.5789 20.5501 17.5781 20.8151V27.0001C17.5789 27.265 17.6878 27.5189 17.881 27.7063C18.0741 27.8937 18.3359 27.9993 18.6091 28.0001H22.9699C23.1053 28.0001 23.2393 27.9742 23.3644 27.924C23.4895 27.8738 23.6032 27.8001 23.6989 27.7072C23.7947 27.6144 23.8706 27.5041 23.9224 27.3828C23.9742 27.2614 24.0008 27.1314 24.0008 27.0001V20.8151C24.0008 20.6837 23.9742 20.5537 23.9224 20.4323C23.8706 20.311 23.7947 20.2007 23.6989 20.1079C23.6032 20.015 23.4895 19.9413 23.3644 19.8911C23.2393 19.8409 23.1053 19.815 22.9699 19.8151Z" fill="#B1040E"/>
<path d="M3.20959 4.31811C3.36938 4.31814 3.5257 4.36339 3.65938 4.44832C3.79305 4.53325 3.89827 4.65417 3.96214 4.79626C4.02601 4.93834 4.04575 5.09542 4.01894 5.24822C3.99214 5.40103 3.91995 5.54293 3.81123 5.65653C3.7025 5.77012 3.56197 5.85048 3.40686 5.88775C3.25175 5.92501 3.0888 5.91757 2.93799 5.86632C2.78718 5.81508 2.65505 5.72227 2.55782 5.59926C2.46059 5.47625 2.40247 5.3284 2.39059 5.17382C2.37866 5.04302 2.31417 4.92201 2.21106 4.83693C2.10794 4.75184 1.97446 4.70951 1.83944 4.71906C1.70443 4.72862 1.5787 4.7893 1.4894 4.888C1.40011 4.98669 1.35441 5.1155 1.36218 5.2466C1.39205 5.61069 1.53549 5.95734 1.77342 6.24043C2.01135 6.52351 2.33249 6.72963 2.69413 6.83135V7.13649C2.69413 7.2691 2.74844 7.39628 2.84511 7.49004C2.94178 7.58381 3.07289 7.63649 3.2096 7.63649C3.34631 7.63649 3.47742 7.58381 3.57408 7.49004C3.67075 7.39628 3.72506 7.2691 3.72506 7.13649V6.83149C4.15332 6.71201 4.52261 6.44638 4.76484 6.08356C5.00707 5.72074 5.10591 5.28521 5.04312 4.85727C4.98033 4.42933 4.76016 4.03783 4.4232 3.75497C4.08625 3.4721 3.65522 3.31694 3.2096 3.3181C3.05104 3.31808 2.89589 3.27352 2.76287 3.18981C2.62986 3.10611 2.52468 2.98683 2.46004 2.84639C2.3954 2.70596 2.37406 2.55037 2.39861 2.39843C2.42315 2.24648 2.49253 2.10468 2.59836 1.99016C2.70419 1.87563 2.84194 1.79328 2.99498 1.75306C3.14801 1.71283 3.30978 1.71645 3.46074 1.76347C3.61171 1.81049 3.7454 1.89891 3.84568 2.01804C3.94596 2.13717 4.00853 2.28192 4.02583 2.4348C4.03271 2.50036 4.05288 2.56394 4.08519 2.62191C4.11749 2.67987 4.16129 2.73107 4.21406 2.77256C4.26683 2.81405 4.32754 2.84501 4.39269 2.86366C4.45784 2.88231 4.52616 2.88829 4.5937 2.88124C4.66124 2.87419 4.72667 2.85427 4.78625 2.8226C4.84582 2.79094 4.89835 2.74816 4.94082 2.69674C4.98329 2.64531 5.01486 2.58625 5.03372 2.52295C5.05258 2.45964 5.05835 2.39335 5.0507 2.32788C5.01108 1.9747 4.86379 1.64102 4.62765 1.36946C4.39151 1.09791 4.07725 0.90084 3.72504 0.803434V0.499999C3.72504 0.367391 3.67073 0.240215 3.57406 0.146447C3.4774 0.0526784 3.34629 0 3.20958 0C3.07287 0 2.94176 0.0526784 2.84509 0.146447C2.74842 0.240215 2.69411 0.367391 2.69411 0.499999V0.804929C2.26962 0.927899 1.90473 1.19458 1.6658 1.55646C1.42688 1.91834 1.32981 2.35139 1.39223 2.77683C1.45465 3.20227 1.67243 3.59185 2.00595 3.87471C2.33947 4.15756 2.76658 4.3149 3.20959 4.31811Z" fill="#B1040E"/>
<path d="M17.8107 14.4245L20.4263 14.1215C20.5618 14.105 20.6851 14.0373 20.7694 13.9331C20.8537 13.829 20.8923 13.6967 20.8768 13.5651L20.5612 11.0285C20.5532 10.9632 20.5321 10.9001 20.4989 10.8428C20.4658 10.7854 20.4213 10.735 20.368 10.6943C20.3148 10.6537 20.2538 10.6236 20.1885 10.6059C20.1232 10.5881 20.055 10.583 19.9877 10.5909C19.9204 10.5988 19.8554 10.6194 19.7963 10.6517C19.7373 10.684 19.6854 10.7273 19.6436 10.779C19.6018 10.8308 19.571 10.89 19.5528 10.9534C19.5347 11.0167 19.5296 11.0829 19.5378 11.1482L19.7024 12.4713L8.38792 5.45677C8.27275 5.38783 8.13424 5.36559 8.0023 5.39484C7.87036 5.42408 7.75557 5.50248 7.6827 5.6131C7.60982 5.72372 7.58471 5.85771 7.61277 5.98613C7.64084 6.11456 7.71984 6.22713 7.83272 6.29955L19.0772 13.2707L17.6884 13.4314C17.5542 13.4489 17.4325 13.517 17.3496 13.6208C17.2667 13.7247 17.2292 13.856 17.2453 13.9864C17.2613 14.1168 17.3296 14.2359 17.4354 14.3179C17.5412 14.3999 17.676 14.4382 17.8107 14.4245Z" fill="#B1040E"/>
</svg>
