<svg width="26" height="26" viewBox="0 0 26 26" fill="none" xmlns="http://www.w3.org/2000/svg">
<path fill-rule="evenodd" clip-rule="evenodd" d="M10.294 15.333C9.34569 15.0255 8.44039 15.4389 7.62796 15.909L4.30717 17.8306L6.76639 22.1736L7.37925 21.82C7.48391 21.7599 7.603 21.7477 7.71113 21.7765L14.2483 23.5259C15.0723 23.7466 15.8516 23.6468 16.5802 23.1986C19.5862 21.3536 22.5886 19.5026 25.5924 17.654C26.0493 17.3729 26.1085 16.6048 25.8378 16.1689C25.2407 15.2073 23.5868 16.0079 22.8997 16.4079L17.9336 19.2988C17.5402 19.5277 17.1356 19.6732 16.7157 19.7437C16.3011 19.8133 15.8742 19.8085 15.4306 19.7376L14.8447 19.6426C14.8226 19.639 14.8006 19.6358 14.7789 19.6305C13.6632 19.4014 12.5825 19.0528 11.484 18.7586C11.2492 18.6959 11.1098 18.4548 11.1725 18.2201C11.2352 17.9854 11.4765 17.846 11.7113 17.9088C12.7853 18.1964 13.8498 18.542 14.9386 18.7671C15.4917 18.8347 15.948 18.6603 16.1016 18.0877C16.2408 17.5683 15.9131 17.0788 15.4222 16.9088C13.9308 16.6359 12.4833 16.1129 11.3451 15.7017C10.9491 15.5586 10.5912 15.4293 10.294 15.333ZM16.1374 7.31622C16.397 7.05686 16.8216 7.05686 17.0811 7.31622L17.7572 7.99196L19.5864 6.16365C19.8459 5.90429 20.2706 5.90429 20.5301 6.16365C20.7896 6.42301 20.7896 6.84743 20.5301 7.10679L18.242 9.39364C17.9112 9.7243 17.4686 9.58991 17.1753 9.29669L16.1374 8.25941C15.8779 7.99999 15.8779 7.57558 16.1374 7.31622ZM24.2866 6.42588C24.137 5.79732 23.8877 5.19684 23.5487 4.64674L24.0621 3.49125L22.6992 2.12904L21.5427 2.64237C20.9924 2.30367 20.3919 2.05455 19.7631 1.90497L19.3089 0.72548H17.3814L16.9272 1.90497C16.2984 2.05455 15.6979 2.30367 15.1476 2.64237L13.9911 2.12904L12.6282 3.49131L13.1417 4.64701C12.8028 5.19706 12.5536 5.79737 12.4039 6.42582L11.2239 6.8798V8.80627L12.4038 9.26014C12.5534 9.88869 12.8027 10.4892 13.1417 11.0393L12.6282 12.1947L13.9912 13.5569L15.1476 13.0436C15.698 13.3823 16.2984 13.6314 16.9272 13.7809L17.3814 14.9604H19.3089L19.763 13.7812C20.3919 13.6317 20.9927 13.3825 21.5431 13.0437L22.6992 13.5569L24.0621 12.1946L23.5485 11.0388C23.8873 10.4888 24.1366 9.88864 24.2862 9.26019L25.4663 8.80621V6.87974L24.2866 6.42588ZM18.3337 11.5583C16.2448 11.5583 14.5514 9.86579 14.5514 7.77801C14.5514 5.69018 16.2448 3.9977 18.3337 3.9977C20.4226 3.9977 22.1161 5.69018 22.1161 7.77801C22.1161 9.86579 20.4226 11.5583 18.3337 11.5583ZM7.14647 7.72378L7.75201 9.31778C7.77018 9.36567 7.8126 9.39645 7.86377 9.39893L9.56768 9.48195C9.68358 9.48757 9.731 9.63352 9.64056 9.70613L8.31089 10.7743C8.2709 10.8064 8.2547 10.8562 8.2682 10.9057L8.71575 12.551C8.74616 12.6628 8.62205 12.753 8.52494 12.6895L7.09761 11.7557C7.0547 11.7276 7.00237 11.7276 6.95946 11.7557L5.53218 12.6895C5.43512 12.753 5.31096 12.6629 5.34137 12.551L5.78893 10.9057C5.80237 10.8562 5.78623 10.8064 5.74624 10.7743L4.41657 9.70613C4.32612 9.63346 4.37355 9.48757 4.48944 9.48195L6.19335 9.39893C6.24458 9.39645 6.28694 9.36567 6.30517 9.31778L6.91065 7.72378C6.95153 7.61599 7.10554 7.61599 7.14647 7.72378ZM7.14647 0.0808475L7.75195 1.67484C7.77018 1.72274 7.81254 1.75351 7.86377 1.75599L9.56762 1.83901C9.68352 1.84463 9.73095 1.99058 9.6405 2.06319L8.31083 3.13136C8.2709 3.16346 8.2547 3.21323 8.26814 3.26272L8.7157 4.90802C8.74616 5.01989 8.622 5.11007 8.52489 5.0466L7.09761 4.11276C7.0547 4.08468 7.00231 4.08468 6.95946 4.11276L5.53218 5.0466C5.43512 5.11013 5.31091 5.01995 5.34137 4.90802L5.78893 3.26272C5.80237 3.21328 5.78617 3.16351 5.74624 3.13136L4.41657 2.06319C4.32612 1.99058 4.3736 1.84463 4.48944 1.83901L6.19335 1.75599C6.24458 1.75351 6.28694 1.72274 6.30512 1.67484L6.91065 0.0808475C6.95153 -0.0269492 7.10549 -0.0269492 7.14647 0.0808475ZM6.85673 24.1216L2.76031 16.8874C2.56223 16.5376 2.11384 16.4134 1.76384 16.6113L0.370496 17.3995C0.0204929 17.5975 -0.103776 18.0456 0.0943052 18.3954L4.19078 25.6297C4.38886 25.9795 4.83724 26.1037 5.18725 25.9057L6.58059 25.1176C6.93049 24.9196 7.05481 24.4714 6.85673 24.1216ZM1.9649 18.9557C1.69306 18.9954 1.44044 18.8074 1.40067 18.5357C1.36096 18.264 1.54907 18.0115 1.82096 17.9717C2.0928 17.932 2.34542 18.1201 2.38519 18.3918C2.4249 18.6635 2.23674 18.916 1.9649 18.9557Z" fill="#B1040E"/>
</svg>
