<svg width="24" height="26" viewBox="0 0 24 26" fill="none" xmlns="http://www.w3.org/2000/svg">
<path d="M19.1377 11.5114C19.1627 11.8363 19.0502 12.1738 18.8002 12.4238L11.2756 19.9485C9.61312 21.6109 7.9382 21.6109 6.26327 19.9485L1.25099 14.9362C0.401025 14.0737 -0.0239568 13.2113 0.00104216 12.3488H0.088538L18.9877 11.5239L19.1377 11.5114Z" fill="#B1040E"/>
<path opacity="0.4" d="M18.7992 10.7488L9.61208 1.5617L8.52463 0.474256C8.16215 0.111772 7.56217 0.111772 7.19969 0.474256C6.8372 0.83674 6.8372 1.43671 7.19969 1.7992L8.28714 2.88664L1.24995 9.92384C0.449981 10.7238 0.0249989 11.5363 0 12.3487H0.0874958L18.9867 11.5238L19.1367 11.5113C19.1242 11.2363 18.9992 10.9488 18.7992 10.7488Z" fill="#B1040E"/>
<path d="M17.4993 25.8858H1.24996C0.737482 25.8858 0.3125 25.4608 0.3125 24.9483C0.3125 24.4358 0.737482 24.0109 1.24996 24.0109H17.4993C18.0117 24.0109 18.4367 24.4358 18.4367 24.9483C18.4367 25.4608 18.0117 25.8858 17.4993 25.8858Z" fill="#B1040E"/>
<path d="M21.6873 15.9236C21.3624 15.5736 20.7624 15.5736 20.4374 15.9236C20.0499 16.3486 18.125 18.5235 18.125 20.1609C18.125 21.7858 19.4374 23.0983 21.0624 23.0983C22.6873 23.0983 23.9997 21.7858 23.9997 20.1609C23.9997 18.5235 22.0748 16.3486 21.6873 15.9236Z" fill="#B1040E"/>
</svg>
