<svg width="25" height="24" viewBox="0 0 25 24" fill="none" xmlns="http://www.w3.org/2000/svg">
<path fill-rule="evenodd" clip-rule="evenodd" d="M6.57913 24C6.23695 24 5.9596 23.7226 5.9596 23.3805C5.9596 23.0383 6.23695 22.7609 6.57913 22.7609H8.95947C9.1259 21.8177 9.20005 20.7737 9.11956 19.837H1.75055C0.783683 19.837 0 19.0533 0 18.0864V4.08889C0 3.12202 0.783683 2.33834 1.75055 2.33834H9.98695L10.0419 2.24328L12.8998 3.89326L9.05205 10.5577L6.19413 8.90775L9.35741 3.42867H1.75055C1.38552 3.42867 1.09033 3.72386 1.09033 4.08889V16.0637H23.2943V4.08889C23.2943 3.72386 22.9992 3.42867 22.6341 3.42867C19.7819 3.42867 16.9298 3.42867 14.0776 3.42867L10.5375 1.38476L10.8605 0.825293C11.3161 0.036109 12.3253 -0.234304 13.1144 0.221324C13.8586 0.650982 14.1414 1.5728 13.7892 2.33829H22.6342C23.601 2.33829 24.3847 3.12197 24.3847 4.08884V18.0864C24.3847 19.0533 23.601 19.837 22.6341 19.837H15.2091C15.1305 20.7737 15.2175 21.8177 15.3969 22.7609H17.7844C18.1266 22.7609 18.4039 23.0382 18.4039 23.3804C18.4039 23.7226 18.1266 24 17.7844 24H6.57913V24ZM18.8632 9.86828C18.8632 9.59474 18.6418 9.37265 18.3675 9.37265H13.2334C12.9597 9.37265 12.7378 9.59474 12.7378 9.86828C12.7378 10.1418 12.9597 10.3639 13.2334 10.3639H18.3675C18.6418 10.364 18.8632 10.1418 18.8632 9.86828ZM7.01731 12.0186L8.30857 11.2731L5.94627 9.90922V12.0237C5.70609 12.0581 5.52147 12.2646 5.52147 12.5142C5.52147 12.788 5.74336 13.0099 6.01709 13.0099H18.3675C18.6412 13.0099 18.8631 12.788 18.8631 12.5142C18.8631 12.2405 18.6412 12.0186 18.3675 12.0186H7.01731Z" fill="#B1040E"/>
</svg>
