<svg width="17" height="16" viewBox="0 0 17 16" fill="none" xmlns="http://www.w3.org/2000/svg">
<path d="M6.62376 2.84423C6.66451 2.92716 6.69142 3.01597 6.70347 3.10727L6.92622 6.41921L7.03679 8.08387C7.03793 8.25505 7.06479 8.42514 7.1165 8.58863C7.25004 8.90585 7.57129 9.10746 7.9208 9.0934L13.2466 8.74504C13.4772 8.74124 13.7 8.82749 13.8658 8.98483C14.0039 9.11594 14.0931 9.28746 14.1212 9.47193L14.1306 9.58395C13.9103 12.6357 11.6689 15.1811 8.62345 15.8382C5.57801 16.4953 2.45505 15.1072 0.95013 12.4277C0.516272 11.6493 0.245283 10.7936 0.153068 9.91099C0.114545 9.6497 0.0975829 9.3858 0.102346 9.12184C0.0975897 5.84999 2.42754 3.02137 5.68903 2.33946C6.08157 2.27834 6.46638 2.48614 6.62376 2.84423Z" fill="#697089"/>
<path opacity="0.4" d="M8.79645 0.000655349C12.4444 0.0934612 15.5103 2.71663 16.1004 6.24983L16.0948 6.2759L16.0787 6.31382L16.0809 6.41789C16.0726 6.55577 16.0194 6.68843 15.9276 6.79559C15.8321 6.90721 15.7015 6.98322 15.5577 7.01273L15.47 7.02476L9.32541 7.42289C9.12102 7.44304 8.91752 7.37714 8.76552 7.24156C8.63886 7.12858 8.55788 6.97607 8.535 6.81174L8.12257 0.67605C8.11539 0.655303 8.11539 0.632812 8.12257 0.612065C8.12821 0.442938 8.20265 0.283072 8.32928 0.168184C8.45591 0.0532958 8.62416 -0.0070403 8.79645 0.000655349Z" fill="#697089"/>
</svg>
