<svg width="16" height="18" viewBox="0 0 16 18" fill="none" xmlns="http://www.w3.org/2000/svg">
<path d="M7.49152 11.8954H7.80626C9.53774 11.8954 11.0068 10.7865 11.5238 9.24874C11.5988 9.02488 11.427 8.79414 11.189 8.79414H10.2195C9.91089 8.79414 9.66154 8.54789 9.66154 8.24397C9.66154 7.93918 9.91089 7.69207 10.2195 7.69207H11.1594C11.4706 7.69207 11.7226 7.44325 11.7226 7.13587C11.7226 6.8285 11.4706 6.57968 11.1594 6.57968H10.2195C9.91089 6.57968 9.66154 6.33257 9.66154 6.02864C9.66154 5.72385 9.91089 5.47675 10.2195 5.47675H11.1594C11.4706 5.47675 11.7226 5.22792 11.7226 4.92055C11.7226 4.61318 11.4706 4.36435 11.1594 4.36435H10.2195C9.91089 4.36435 9.66154 4.11725 9.66154 3.81246C9.66154 3.50853 9.91089 3.26142 10.2195 3.26142H11.2387C11.4724 3.26142 11.6398 3.04101 11.577 2.81802C11.114 1.19161 9.60138 0 7.80626 0H7.49152C5.32847 0 3.5752 1.73059 3.5752 3.86756V8.02786C3.5752 10.164 5.32847 11.8954 7.49152 11.8954Z" fill="#697089"/>
<path opacity="0.4" d="M14.4282 7.04333C13.9469 7.04333 13.5563 7.4282 13.5563 7.90432C13.5563 11.1201 10.9068 13.7367 7.65044 13.7367C4.39322 13.7367 1.74369 11.1201 1.74369 7.90432C1.74369 7.4282 1.3531 7.04333 0.871845 7.04333C0.390586 7.04333 0 7.4282 0 7.90432C0 11.7788 2.9695 14.9773 6.77859 15.407V17.1393C6.77859 17.6146 7.16831 18.0003 7.65044 18.0003C8.13169 18.0003 8.52228 17.6146 8.52228 17.1393V15.407C12.3305 14.9773 15.3 11.7788 15.3 7.90432C15.3 7.4282 14.9094 7.04333 14.4282 7.04333Z" fill="#697089"/>
</svg>
