<svg width="18" height="16" viewBox="0 0 18 16" fill="none" xmlns="http://www.w3.org/2000/svg">
<path opacity="0.4" d="M1.96289 0.60791V10.3088C1.96289 11.103 2.33569 11.8567 2.97593 12.3349L7.19829 15.4956C8.09787 16.1682 9.33784 16.1682 10.2374 15.4956L14.4598 12.3349C15.1 11.8567 15.4728 11.103 15.4728 10.3088V0.60791H1.96289Z" fill="#697089"/>
<path d="M16.8165 1.21565H0.607826C0.275548 1.21565 0 0.940104 0 0.607826C0 0.275548 0.275548 0 0.607826 0H16.8165C17.1488 0 17.4243 0.275548 17.4243 0.607826C17.4243 0.940104 17.1488 1.21565 16.8165 1.21565Z" fill="#697089"/>
<path d="M11.9536 5.67293H5.47013C5.13785 5.67293 4.8623 5.39738 4.8623 5.0651C4.8623 4.73282 5.13785 4.45728 5.47013 4.45728H11.9536C12.2859 4.45728 12.5614 4.73282 12.5614 5.0651C12.5614 5.39738 12.2859 5.67293 11.9536 5.67293Z" fill="#697089"/>
<path d="M11.9536 9.72493H5.47013C5.13785 9.72493 4.8623 9.44938 4.8623 9.1171C4.8623 8.78483 5.13785 8.50928 5.47013 8.50928H11.9536C12.2859 8.50928 12.5614 8.78483 12.5614 9.1171C12.5614 9.44938 12.2859 9.72493 11.9536 9.72493Z" fill="#697089"/>
</svg>
