<svg width="15" height="16" viewBox="0 0 15 16" fill="none" xmlns="http://www.w3.org/2000/svg">
<path opacity="0.4" d="M10.4404 12.8721C10.0768 12.8641 9.78441 12.5601 9.78441 12.1921C9.77651 11.8241 10.0689 11.5209 10.4325 11.5129H10.4404C10.8119 11.5129 11.1122 11.8169 11.1122 12.1921C11.1122 12.5681 10.8119 12.8721 10.4404 12.8721ZM7.21581 9.92806C6.85225 9.94486 6.55192 9.65606 6.53612 9.28886C6.53612 8.92086 6.82064 8.61686 7.18419 8.60006C7.53985 8.60006 7.83227 8.88086 7.84018 9.24006C7.85598 9.60886 7.57146 9.91286 7.21581 9.92806ZM7.21581 12.8321C6.85225 12.8489 6.55192 12.5601 6.53612 12.1921C6.53612 11.8241 6.82064 11.5209 7.18419 11.5041C7.53985 11.5041 7.83227 11.7849 7.84018 12.1449C7.85598 12.5129 7.57146 12.8169 7.21581 12.8321ZM3.96751 9.92806C3.60395 9.94486 3.30362 9.65606 3.28782 9.28886C3.28782 8.92086 3.57234 8.61686 3.9359 8.60006C4.29155 8.60006 4.58397 8.88086 4.59188 9.24006C4.60768 9.60886 4.32316 9.91286 3.96751 9.92806ZM3.9596 12.8321C3.59605 12.8489 3.29572 12.5601 3.27991 12.1921C3.27991 11.8241 3.56444 11.5209 3.92799 11.5041C4.28364 11.5041 4.57607 11.7849 4.58397 12.1449C4.59978 12.5129 4.31526 12.8169 3.9596 12.8321ZM9.79232 9.28086C9.79232 8.91286 10.0768 8.61686 10.4404 8.60886C10.796 8.60886 11.0806 8.89606 11.0964 9.24886C11.1043 9.61686 10.8198 9.92086 10.4641 9.92806C10.1005 9.93606 9.80022 9.65606 9.79232 9.28886V9.28086ZM0 5.80566V11.8961C0 14.4241 1.59649 16.0001 4.10187 16.0001H10.2902C12.8193 16.0001 14.4 14.4561 14.4 11.9449V5.80566H0Z" fill="#697089"/>
<path d="M0.00390625 5.80476C0.0141807 5.33516 0.0536977 4.40316 0.12799 4.10316C0.507353 2.41596 1.79561 1.34396 3.6371 1.19116H10.766C12.5917 1.35196 13.8957 2.43116 14.2751 4.10316C14.3486 4.39516 14.3881 5.33436 14.3984 5.80476H0.00390625Z" fill="#697089"/>
<path d="M4.2443 3.672C4.59205 3.672 4.85287 3.4088 4.85287 3.056V0.6168C4.85287 0.264 4.59205 0 4.2443 0C3.89655 0 3.63574 0.264 3.63574 0.6168V3.056C3.63574 3.4088 3.89655 3.672 4.2443 3.672Z" fill="#697089"/>
<path d="M10.1525 3.672C10.4924 3.672 10.7611 3.4088 10.7611 3.056V0.6168C10.7611 0.264 10.4924 0 10.1525 0C9.80476 0 9.54395 0.264 9.54395 0.6168V3.056C9.54395 3.4088 9.80476 3.672 10.1525 3.672Z" fill="#697089"/>
</svg>
