<svg width="17" height="16" viewBox="0 0 17 16" fill="none" xmlns="http://www.w3.org/2000/svg">
<path d="M15.6812 15.9998H0.878433C0.550371 15.9998 0.27832 15.7277 0.27832 15.3997C0.27832 15.0716 0.550371 14.7996 0.878433 14.7996H15.6812C16.0093 14.7996 16.2813 15.0716 16.2813 15.3997C16.2813 15.7277 16.0093 15.9998 15.6812 15.9998Z" fill="#697089"/>
<path opacity="0.4" d="M15.1526 9.3587L9.36749 15.1438C8.23128 16.28 6.39893 16.28 5.27072 15.1518L1.58203 11.4631L11.4719 1.57324L15.1606 5.26193C16.2888 6.39014 16.2888 8.22249 15.1526 9.3587Z" fill="#697089"/>
<path d="M11.4712 1.5733L1.5733 11.4631L0.845161 10.735C-0.28305 9.6068 -0.28305 7.77446 0.853162 6.63825L6.63825 0.853162C7.77446 -0.28305 9.6068 -0.28305 10.735 0.845161L11.4712 1.5733Z" fill="#697089"/>
<path d="M8.99193 12.4796L7.91173 13.5598C7.68769 13.7838 7.32762 13.7838 7.10358 13.5598C6.87954 13.3358 6.87954 12.9757 7.10358 12.7517L8.18378 11.6714C8.40782 11.4474 8.76789 11.4474 8.99193 11.6714C9.21597 11.8955 9.21597 12.2556 8.99193 12.4796Z" fill="#697089"/>
<path d="M12.4958 8.97447L10.3434 11.1269C10.1193 11.3509 9.75926 11.3509 9.53522 11.1269C9.31118 10.9028 9.31118 10.5428 9.53522 10.3187L11.6876 8.16632C11.9117 7.94228 12.2717 7.94228 12.4958 8.16632C12.7118 8.39036 12.7118 8.75043 12.4958 8.97447Z" fill="#697089"/>
</svg>
