<svg width="17" height="16" viewBox="0 0 17 16" fill="none" xmlns="http://www.w3.org/2000/svg">
<path opacity="0.4" d="M13.7191 5.64274C13.7191 6.8116 13.3725 7.88373 12.7759 8.77851C11.9053 10.0683 10.5269 10.9792 8.92275 11.2129C8.64867 11.2613 8.36654 11.2855 8.07634 11.2855C7.78614 11.2855 7.504 11.2613 7.22993 11.2129C5.62577 10.9792 4.24733 10.0683 3.37674 8.77851C2.78022 7.88373 2.43359 6.8116 2.43359 5.64274C2.43359 2.52311 4.95671 0 8.07634 0C11.196 0 13.7191 2.52311 13.7191 5.64274Z" fill="#697089"/>
<path d="M15.5341 13.2764L14.2041 13.5908C13.9058 13.6633 13.672 13.889 13.6075 14.1873L13.3254 15.3723C13.1722 16.0172 12.35 16.2106 11.9228 15.7028L8.07766 11.2853L4.23253 15.7108C3.80529 16.2187 2.98307 16.0252 2.82991 15.3803L2.54777 14.1953C2.47522 13.8971 2.24145 13.6633 1.95125 13.5988L0.621175 13.2845C0.00853384 13.1394 -0.209115 12.3735 0.234244 11.9302L3.37806 8.78638C4.24865 10.0761 5.6271 10.9871 7.23125 11.2208C7.50532 11.2692 7.78746 11.2934 8.07766 11.2934C8.36786 11.2934 8.64999 11.2692 8.92407 11.2208C10.5282 10.9871 11.9067 10.0761 12.7773 8.78638L15.9211 11.9302C16.3644 12.3655 16.1468 13.1313 15.5341 13.2764Z" fill="#697089"/>
<path d="M8.54362 3.20822L9.01922 4.15942C9.08371 4.2884 9.25299 4.41738 9.40615 4.44156L10.2687 4.58665C10.8168 4.67533 10.9458 5.07838 10.5508 5.47338L9.88175 6.14243C9.7689 6.25529 9.70441 6.47295 9.74472 6.63417L9.93818 7.46446C10.0913 8.11741 9.74472 8.37535 9.16432 8.02872L8.35821 7.55312C8.21311 7.46445 7.97128 7.46445 7.82618 7.55312L7.02008 8.02872C6.43968 8.36728 6.09305 8.11741 6.24621 7.46446L6.43968 6.63417C6.47193 6.48101 6.4155 6.25529 6.30264 6.14243L5.63357 5.47338C5.23858 5.07838 5.36756 4.68339 5.91571 4.58665L6.77825 4.44156C6.92334 4.41738 7.09263 4.2884 7.15711 4.15942L7.63272 3.20822C7.86649 2.69231 8.28566 2.69231 8.54362 3.20822Z" fill="#697089"/>
</svg>
