<svg width="16" height="16" viewBox="0 0 16 16" fill="none" xmlns="http://www.w3.org/2000/svg">
<path opacity="0.4" d="M16.0041 5.216V1.584C16.0041 0.456 15.4921 0 14.2201 0H10.9881C9.7161 0 9.2041 0.456 9.2041 1.584V5.208C9.2041 6.344 9.7161 6.792 10.9881 6.792H14.2201C15.4921 6.8 16.0041 6.344 16.0041 5.216Z" fill="currentColor"/>
<path d="M16.0041 14.216V10.984C16.0041 9.71195 15.4921 9.19995 14.2201 9.19995H10.9881C9.7161 9.19995 9.2041 9.71195 9.2041 10.984V14.216C9.2041 15.488 9.7161 16 10.9881 16H14.2201C15.4921 16 16.0041 15.488 16.0041 14.216Z" fill="currentColor"/>
<path d="M6.8 5.216V1.584C6.8 0.456 6.288 0 5.016 0H1.784C0.512 0 0 0.456 0 1.584V5.208C0 6.344 0.512 6.792 1.784 6.792H5.016C6.288 6.8 6.8 6.344 6.8 5.216Z" fill="currentColor"/>
<path opacity="0.4" d="M6.8 14.216V10.984C6.8 9.71195 6.288 9.19995 5.016 9.19995H1.784C0.512 9.19995 0 9.71195 0 10.984V14.216C0 15.488 0.512 16 1.784 16H5.016C6.288 16 6.8 15.488 6.8 14.216Z" fill="currentColor"/>
</svg>
