<svg width="15" height="16" viewBox="0 0 15 16" fill="none" xmlns="http://www.w3.org/2000/svg">
<path opacity="0.4" d="M14.1 4V10.4H2.78C1.524 10.4 0.5 11.424 0.5 12.68V4C0.5 0.8 1.3 0 4.5 0H10.1C13.3 0 14.1 0.8 14.1 4Z" fill="#697089"/>
<path d="M14.1 10.4V13.2C14.1 14.744 12.844 16 11.3 16H3.3C1.756 16 0.5 14.744 0.5 13.2V12.68C0.5 11.424 1.524 10.4 2.78 10.4H14.1Z" fill="#697089"/>
<path d="M10.5 4.60002H4.1C3.772 4.60002 3.5 4.32802 3.5 4.00002C3.5 3.67202 3.772 3.40002 4.1 3.40002H10.5C10.828 3.40002 11.1 3.67202 11.1 4.00002C11.1 4.32802 10.828 4.60002 10.5 4.60002Z" fill="#697089"/>
<path d="M8.1 7.39995H4.1C3.772 7.39995 3.5 7.12795 3.5 6.79995C3.5 6.47195 3.772 6.19995 4.1 6.19995H8.1C8.428 6.19995 8.7 6.47195 8.7 6.79995C8.7 7.12795 8.428 7.39995 8.1 7.39995Z" fill="#697089"/>
</svg>
