<svg width="17" height="16" viewBox="0 0 17 16" fill="none" xmlns="http://www.w3.org/2000/svg">
<path opacity="0.4" d="M14.2903 2.86564H13.9703L11.2667 0.16198C11.0507 -0.0539932 10.6987 -0.0539932 10.4748 0.16198C10.2588 0.377953 10.2588 0.729909 10.4748 0.953881L12.3865 2.86564H4.61149L6.52325 0.953881C6.73922 0.737908 6.73922 0.385952 6.52325 0.16198C6.30727 -0.0539932 5.95532 -0.0539932 5.73135 0.16198L3.03568 2.86564H2.71572C1.99581 2.86564 0.5 2.86564 0.5 4.91339C0.5 5.68929 0.65998 6.20122 0.995938 6.53718C1.18791 6.73716 1.41989 6.84114 1.66785 6.89714C1.89982 6.95313 2.14779 6.96113 2.38776 6.96113H14.6102C14.8582 6.96113 15.0902 6.94513 15.3141 6.89714C15.9861 6.73716 16.498 6.25722 16.498 4.91339C16.498 2.86564 15.0022 2.86564 14.2903 2.86564Z" fill="#697089"/>
<path d="M14.6193 6.96103H2.38886C2.15688 6.96103 1.90092 6.95303 1.66895 6.88904L2.67682 13.0403C2.90079 14.4161 3.50072 15.9999 6.16438 15.9999H10.6518C13.3475 15.9999 13.8274 14.6481 14.1154 13.1363L15.3232 6.88904C15.0993 6.94503 14.8593 6.96103 14.6193 6.96103ZM8.50009 13.2002C6.62833 13.2002 5.10052 11.6724 5.10052 9.80067C5.10052 9.47272 5.37248 9.20075 5.70044 9.20075C6.0284 9.20075 6.30037 9.47272 6.30037 9.80067C6.30037 11.0165 7.28424 12.0004 8.50009 12.0004C9.71594 12.0004 10.6998 11.0165 10.6998 9.80067C10.6998 9.47272 10.9718 9.20075 11.2997 9.20075C11.6277 9.20075 11.8997 9.47272 11.8997 9.80067C11.8997 11.6724 10.3719 13.2002 8.50009 13.2002Z" fill="#697089"/>
</svg>
