<svg width="17" height="16" viewBox="0 0 17 16" fill="none" xmlns="http://www.w3.org/2000/svg">
<path opacity="0.4" d="M16.7348 6.68487L15.9012 10.2048C15.1867 13.2447 13.7747 14.4741 11.1208 14.2215C10.6955 14.1878 10.2362 14.112 9.74286 13.9941L8.31386 13.6573C4.76687 12.8236 3.6696 11.0889 4.50318 7.56906L5.33677 4.04075C5.50689 3.32498 5.71103 2.70184 5.96621 2.18818C6.96141 0.150347 8.6541 -0.397003 11.4951 0.268238L12.9156 0.596649C16.4796 1.42189 17.5684 3.16499 16.7348 6.68487Z" fill="#697089"/>
<path d="M11.1207 14.221C10.5933 14.5747 9.92988 14.8694 9.12181 15.1305L7.77787 15.5684C4.401 16.6462 2.62325 15.7452 1.52598 12.4022L0.437218 9.07594C-0.651546 5.73289 0.250086 3.96453 3.62696 2.88667L4.9709 2.44879C5.31964 2.33932 5.65138 2.24669 5.9661 2.18774C5.71092 2.70141 5.50678 3.32455 5.33666 4.04032L4.50307 7.56862C3.66949 11.0885 4.76676 12.8232 8.31375 13.6568L9.74275 13.9937C10.2361 14.1116 10.6954 14.1874 11.1207 14.221Z" fill="#697089"/>
<path d="M13.1875 6.74387C13.1365 6.74387 13.0854 6.73545 13.0259 6.72703L8.90048 5.69127C8.56024 5.60707 8.3561 5.26181 8.44116 4.92498C8.52622 4.58815 8.87496 4.38605 9.2152 4.47026L13.3406 5.50602C13.6808 5.59022 13.885 5.93548 13.7999 6.27231C13.7319 6.55019 13.4682 6.74387 13.1875 6.74387Z" fill="#697089"/>
<path d="M10.6936 9.59029C10.6425 9.59029 10.5915 9.58186 10.532 9.57344L8.05673 8.95031C7.71649 8.8661 7.51235 8.52085 7.59741 8.18402C7.68247 7.84718 8.03121 7.64509 8.37145 7.72929L10.8467 8.35243C11.1869 8.43664 11.3911 8.78189 11.306 9.11872C11.238 9.40503 10.9828 9.59029 10.6936 9.59029Z" fill="#697089"/>
</svg>
