<svg width="17" height="16" viewBox="0 0 17 16" fill="none" xmlns="http://www.w3.org/2000/svg">
<path opacity="0.4" d="M9.2432 0.516728L11.1181 4.28454C11.2563 4.55752 11.5199 4.74709 11.824 4.78922L16.0354 5.40258C16.2813 5.43712 16.5045 5.56687 16.6553 5.76487C16.8044 5.96034 16.8684 6.20804 16.8322 6.45153C16.8027 6.65374 16.7075 6.84079 16.5618 6.98402L13.5102 9.94215C13.287 10.1486 13.1859 10.4544 13.2398 10.7535L13.9912 14.9123C14.0712 15.4144 13.7385 15.8879 13.2398 15.9831C13.0343 16.016 12.8238 15.9814 12.6385 15.8871L8.88186 13.9299C8.60306 13.7892 8.27373 13.7892 7.99493 13.9299L4.23834 15.8871C3.77676 16.1322 3.20485 15.9654 2.94796 15.5105C2.85278 15.3293 2.81909 15.1229 2.85025 14.9215L3.60157 10.7619C3.65548 10.4637 3.55356 10.1562 3.3312 9.94973L0.279593 6.99328C-0.0834322 6.64279 -0.094382 6.06565 0.255167 5.70252C0.262747 5.69494 0.27117 5.68651 0.279593 5.67809C0.424466 5.53065 0.614823 5.43712 0.820341 5.41269L5.03177 4.79848C5.33499 4.75551 5.59863 4.56763 5.73761 4.29296L7.54515 0.516728C7.70603 0.193195 8.03957 -0.00817085 8.40176 0.000254489H8.51462C8.8288 0.0381685 9.10254 0.232794 9.2432 0.516728Z" fill="#697089"/>
<path d="M8.41433 13.8249C8.25121 13.83 8.0923 13.8738 7.94936 13.9522L4.21113 15.905C3.75373 16.1232 3.20637 15.9538 2.94992 15.5164C2.85491 15.3378 2.82044 15.133 2.85239 14.9324L3.59903 10.7816C3.64947 10.4799 3.54858 10.1731 3.32913 9.96072L0.276158 7.00503C-0.08623 6.65022 -0.0929565 6.06784 0.261864 5.7046C0.266909 5.69954 0.271113 5.69533 0.276158 5.69111C0.420776 5.54784 0.607436 5.45344 0.808388 5.42395L5.02335 4.80365C5.32857 4.76488 5.59342 4.57441 5.72795 4.29797L7.56007 0.474205C7.73411 0.165741 8.06791 -0.0179882 8.42105 0.0013961C8.41433 0.251707 8.41433 13.6547 8.41433 13.8249Z" fill="#697089"/>
</svg>
