<svg width="16" height="16" viewBox="0 0 16 16" fill="none" xmlns="http://www.w3.org/2000/svg">
<path d="M7.60509 10.2644C6.32151 10.2644 5.2832 9.26439 5.2832 8.00839C5.2832 6.75239 6.32151 5.74438 7.60509 5.74438C8.88867 5.74438 9.90245 6.75239 9.90245 8.00839C9.90245 9.26439 8.88867 10.2644 7.60509 10.2644Z" fill="#697089"/>
<path opacity="0.4" d="M14.9841 9.896C14.8288 9.656 14.608 9.416 14.3219 9.264C14.093 9.152 13.9458 8.968 13.815 8.752C13.398 8.064 13.6433 7.16 14.3382 6.752C15.1558 6.296 15.4174 5.28 14.9432 4.488L14.3955 3.544C13.9294 2.752 12.9075 2.472 12.0981 2.936C11.3786 3.32 10.4548 3.064 10.0378 2.384C9.90702 2.16 9.83344 1.92 9.84979 1.68C9.87432 1.368 9.77621 1.072 9.62905 0.832C9.32655 0.336 8.77878 0 8.17378 0H7.02101C6.42419 0.016 5.87642 0.336 5.57392 0.832C5.41858 1.072 5.32865 1.368 5.345 1.68C5.36135 1.92 5.28777 2.16 5.15696 2.384C4.74 3.064 3.81615 3.32 3.10487 2.936C2.28731 2.472 1.27352 2.752 0.799336 3.544L0.251567 4.488C-0.214445 5.28 0.0471757 6.296 0.856566 6.752C1.5515 7.16 1.79677 8.064 1.38798 8.752C1.249 8.968 1.10184 9.152 0.872917 9.264C0.594945 9.416 0.349675 9.656 0.218865 9.896C-0.0836348 10.392 -0.0672835 11.016 0.235216 11.536L0.799336 12.496C1.10184 13.008 1.66596 13.328 2.2546 13.328C2.53258 13.328 2.8596 13.248 3.12122 13.088C3.32561 12.952 3.57088 12.904 3.84068 12.904C4.65007 12.904 5.32865 13.568 5.345 14.36C5.345 15.28 6.09716 16 7.04554 16H8.15743C9.09763 16 9.84979 15.28 9.84979 14.36C9.87432 13.568 10.5529 12.904 11.3623 12.904C11.6239 12.904 11.8692 12.952 12.0817 13.088C12.3434 13.248 12.6622 13.328 12.9484 13.328C13.5288 13.328 14.093 13.008 14.3955 12.496L14.9678 11.536C15.2621 11 15.2866 10.392 14.9841 9.896Z" fill="#697089"/>
</svg>
