<svg width="14" height="17" viewBox="0 0 14 17" fill="none" xmlns="http://www.w3.org/2000/svg">
<path d="M3.53162 0.93677C5.71647 -0.332725 8.40201 -0.310536 10.5664 0.994893C12.7094 2.32691 14.0119 4.70417 13.9999 7.26143C13.9499 9.80192 12.5533 12.19 10.8075 14.0361C9.79981 15.1064 8.6726 16.0528 7.44883 16.856C7.32279 16.9289 7.18474 16.9777 7.04147 17C6.90359 16.9941 6.7693 16.9534 6.65074 16.8814C4.78242 15.6745 3.14333 14.134 1.81233 12.3339C0.698586 10.8313 0.0658344 9.01599 0 7.13441L0.00498621 6.86068C0.0959219 4.40464 1.42479 2.16093 3.53162 0.93677ZM7.90725 5.03476C7.01906 4.65723 5.99503 4.86234 5.31331 5.55434C4.63158 6.24633 4.42663 7.28871 4.79415 8.19477C5.16168 9.10082 6.02917 9.69183 6.99159 9.69183C7.62209 9.69636 8.22817 9.44381 8.67479 8.99046C9.12141 8.53711 9.37147 7.92062 9.36924 7.27837C9.37259 6.29802 8.79544 5.4123 7.90725 5.03476Z" fill="#B1040E"/>
</svg>
