<svg width="12" height="17" viewBox="0 0 12 17" fill="none" xmlns="http://www.w3.org/2000/svg">
<path fill-rule="evenodd" clip-rule="evenodd" d="M1.84416 7.66625C1.14576 7.66625 1 7.80329 1 8.4599V9.65038C1 10.307 1.14576 10.444 1.84416 10.444H3.53247V15.2059C3.53247 15.8625 3.67823 15.9996 4.37662 15.9996H6.06494C6.76333 15.9996 6.90909 15.8625 6.90909 15.2059V10.444H8.80481C9.33449 10.444 9.47097 10.3472 9.61649 9.86841L9.97827 8.67793C10.2275 7.85769 10.0739 7.66625 9.16659 7.66625H6.90909V5.68212C6.90909 5.2438 7.28703 4.88847 7.75325 4.88847H10.1558C10.8542 4.88847 11 4.75143 11 4.09482V2.50752C11 1.8509 10.8542 1.71387 10.1558 1.71387H7.75325C5.42217 1.71387 3.53247 3.49052 3.53247 5.68212V7.66625H1.84416Z" stroke="#818487" stroke-width="1.5" stroke-linejoin="round"/>
</svg>
