<svg width="16" height="16" viewBox="0 0 16 16" fill="none" xmlns="http://www.w3.org/2000/svg">
<path d="M1 8C1 4.70017 1 3.05025 2.02513 2.02513C3.05025 1 4.70017 1 8 1C11.2998 1 12.9497 1 13.9749 2.02513C15 3.05025 15 4.70017 15 8C15 11.2998 15 12.9497 13.9749 13.9749C12.9497 15 11.2998 15 8 15C4.70017 15 3.05025 15 2.02513 13.9749C1 12.9497 1 11.2998 1 8Z" stroke="#818487" stroke-width="1.5" stroke-linejoin="round"/>
<path d="M11.3132 7.99987C11.3132 9.83113 9.82869 11.3157 7.99743 11.3157C6.16617 11.3157 4.68164 9.83113 4.68164 7.99987C4.68164 6.16861 6.16617 4.68408 7.99743 4.68408C9.82869 4.68408 11.3132 6.16861 11.3132 7.99987Z" stroke="#818487" stroke-width="1.5"/>
<path d="M12.0605 3.94727L12.0516 3.94727" stroke="#818487" stroke-width="2" stroke-linecap="round" stroke-linejoin="round"/>
</svg>
