<svg width="15" height="17" viewBox="0 0 15 17" fill="none" xmlns="http://www.w3.org/2000/svg">
<path d="M14 7.13636C14 11.9091 7.5 16 7.5 16C7.5 16 1 11.9091 1 7.13636C1 5.5089 1.68482 3.94809 2.90381 2.7973C4.12279 1.64651 5.77609 1 7.5 1C9.22391 1 10.8772 1.64651 12.0962 2.7973C13.3152 3.94809 14 5.5089 14 7.13636Z" stroke="#4F5158" stroke-width="1.5" stroke-linecap="round" stroke-linejoin="round"/>
<path d="M7.49992 9.18173C8.69654 9.18173 9.66659 8.26595 9.66659 7.13627C9.66659 6.0066 8.69654 5.09082 7.49992 5.09082C6.3033 5.09082 5.33325 6.0066 5.33325 7.13627C5.33325 8.26595 6.3033 9.18173 7.49992 9.18173Z" stroke="#4F5158" stroke-width="1.5" stroke-linecap="round" stroke-linejoin="round"/>
</svg>
