<svg width="19" height="17" viewBox="0 0 19 17" fill="none" xmlns="http://www.w3.org/2000/svg">
<path d="M9.5 15.9998C11.0382 15.9998 12.5133 15.8478 13.8804 15.5692C15.588 15.2211 16.4418 15.0471 17.2209 14.0453C18 13.0436 18 11.8937 18 9.59382V7.95579C18 5.65593 18 4.50599 17.2209 3.50427C16.4418 2.50255 15.588 2.32851 13.8804 1.98043C12.5133 1.70176 11.0382 1.5498 9.5 1.5498C7.96177 1.5498 6.48666 1.70176 5.11957 1.98043C3.41201 2.32851 2.55823 2.50255 1.77911 3.50427C1 4.50599 1 5.65593 1 7.95579V9.59382C1 11.8937 1 13.0436 1.77911 14.0453C2.55823 15.0471 3.41201 15.2211 5.11957 15.5692C6.48666 15.8478 7.96177 15.9998 9.5 15.9998Z" stroke="#818487" stroke-width="1.5"/>
<path d="M12.869 9.04075C12.7428 9.55572 12.0717 9.92556 10.7293 10.6653C9.26933 11.4698 8.53934 11.872 7.94805 11.717C7.74779 11.6646 7.56334 11.5723 7.40846 11.4471C6.95117 11.0773 6.95117 10.3098 6.95117 8.7748C6.95117 7.23977 6.95117 6.47226 7.40846 6.10255C7.56334 5.97734 7.74779 5.88505 7.94805 5.83256C8.53934 5.67759 9.26933 6.07984 10.7293 6.88434C12.0717 7.62404 12.7428 7.99389 12.869 8.50886C12.9119 8.68407 12.9119 8.86553 12.869 9.04075Z" stroke="#818487" stroke-width="1.5" stroke-linejoin="round"/>
</svg>
