<svg width="56" height="12" viewBox="0 0 56 12" fill="none" xmlns="http://www.w3.org/2000/svg">
<path d="M44.6676 3.10058L46.9036 3.387C48.2789 3.52894 49.4253 3.76758 50.3904 3.90389L51.709 4.10139L52.764 4.29745C53.3858 4.40373 53.8641 4.47152 54.2284 4.50771C55.6849 4.66107 55.3148 4.29581 55.3847 3.99066C55.4546 3.68551 55.9213 3.54043 54.4947 2.99627C54.1386 2.86569 53.664 2.70744 53.0363 2.51851L51.9747 2.20082L50.6386 1.90668C49.667 1.6963 48.4761 1.4235 47.0608 1.24348L44.7631 0.921418C43.9284 0.826773 43.047 0.771273 42.0907 0.683279C37.6099 0.352541 33.1078 0.450858 28.6458 0.976889C23.8124 1.55476 19.0545 2.64719 14.4531 4.23561C10.79 5.47781 7.26053 7.08365 3.91744 9.02911C2.91326 9.59973 1.94192 10.2263 1.00802 10.9059C0.339753 11.3792 -0.00550479 11.6689 0.0328932 11.7241C0.232129 12.0658 6.3368 8.20754 15.0078 5.70215C19.5654 4.34996 24.2431 3.44171 28.9755 2.99008C33.33 2.58198 37.7111 2.54154 42.0723 2.86921L44.6465 3.09442" fill="#FF296A"/>
</svg>
