<svg width="70" height="11" viewBox="0 0 70 11" fill="none" xmlns="http://www.w3.org/2000/svg">
<path d="M9.21558 6.8427C9.06564 6.98801 8.99675 7.19815 9.0309 7.40424L9.54556 10.2525C9.58897 10.4939 9.48708 10.7382 9.28505 10.8777C9.08706 11.0224 8.82366 11.0398 8.60772 10.924L6.04374 9.58673C5.95458 9.53926 5.85559 9.51379 5.75428 9.51089H5.5974C5.54298 9.519 5.48972 9.53636 5.44109 9.56299L2.87653 10.9066C2.74974 10.9703 2.60618 10.9929 2.4655 10.9703C2.12279 10.9055 1.89412 10.579 1.95027 10.2345L2.4655 7.3863C2.49966 7.17847 2.43077 6.96717 2.28083 6.81954L0.190389 4.79336C0.0155586 4.62374 -0.0452268 4.36902 0.0346626 4.1392C0.112236 3.90995 0.310223 3.74265 0.549312 3.70502L3.42649 3.28762C3.64532 3.26505 3.83751 3.1319 3.93593 2.93507L5.20374 0.335767C5.23384 0.277876 5.27263 0.224617 5.31952 0.179462L5.37162 0.138938C5.39883 0.108835 5.43009 0.0839418 5.46483 0.06368L5.52793 0.0405236L5.62634 0H5.87006C6.08773 0.0225774 6.27935 0.152832 6.3795 0.347345L7.6641 2.93507C7.75673 3.12437 7.93677 3.25578 8.1446 3.28762L11.0218 3.70502C11.2649 3.73975 11.4681 3.90763 11.5486 4.1392C11.6244 4.37134 11.559 4.62606 11.3807 4.79336L9.21558 6.8427Z" fill="#FFB21D"/>
<path d="M23.6902 6.8427C23.5402 6.98801 23.4714 7.19815 23.5055 7.40424L24.0202 10.2525C24.0636 10.4939 23.9617 10.7382 23.7597 10.8777C23.5617 11.0224 23.2983 11.0398 23.0823 10.924L20.5183 9.58673C20.4292 9.53926 20.3302 9.51379 20.2289 9.51089H20.072C20.0176 9.519 19.9643 9.53636 19.9157 9.56299L17.3511 10.9066C17.2244 10.9703 17.0808 10.9929 16.9401 10.9703C16.5974 10.9055 16.3687 10.579 16.4249 10.2345L16.9401 7.3863C16.9743 7.17847 16.9054 6.96717 16.7554 6.81954L14.665 4.79336C14.4902 4.62374 14.4294 4.36902 14.5093 4.1392C14.5868 3.90995 14.7848 3.74265 15.0239 3.70502L17.9011 3.28762C18.1199 3.26505 18.3121 3.1319 18.4105 2.93507L19.6783 0.335767C19.7085 0.277876 19.7472 0.224617 19.7941 0.179462L19.8462 0.138938C19.8734 0.108835 19.9047 0.0839418 19.9394 0.06368L20.0025 0.0405236L20.101 0H20.3447C20.5623 0.0225774 20.754 0.152832 20.8541 0.347345L22.1387 2.93507C22.2313 3.12437 22.4114 3.25578 22.6192 3.28762L25.4964 3.70502C25.7395 3.73975 25.9427 3.90763 26.0232 4.1392C26.099 4.37134 26.0336 4.62606 25.8553 4.79336L23.6902 6.8427Z" fill="#FFB21D"/>
<path d="M38.1648 6.8427C38.0149 6.98801 37.946 7.19815 37.9801 7.40424L38.4948 10.2525C38.5382 10.4939 38.4363 10.7382 38.2343 10.8777C38.0363 11.0224 37.7729 11.0398 37.5569 10.924L34.993 9.58673C34.9038 9.53926 34.8048 9.51379 34.7035 9.51089H34.5466C34.4922 9.519 34.4389 9.53636 34.3903 9.56299L31.8257 10.9066C31.699 10.9703 31.5554 10.9929 31.4147 10.9703C31.072 10.9055 30.8433 10.579 30.8995 10.2345L31.4147 7.3863C31.4489 7.17847 31.38 6.96717 31.23 6.81954L29.1396 4.79336C28.9648 4.62374 28.904 4.36902 28.9839 4.1392C29.0615 3.90995 29.2594 3.74265 29.4985 3.70502L32.3757 3.28762C32.5945 3.26505 32.7867 3.1319 32.8851 2.93507L34.153 0.335767C34.1831 0.277876 34.2218 0.224617 34.2687 0.179462L34.3208 0.138938C34.348 0.108835 34.3793 0.0839418 34.414 0.06368L34.4771 0.0405236L34.5756 0H34.8193C35.037 0.0225774 35.2286 0.152832 35.3287 0.347345L36.6133 2.93507C36.7059 3.12437 36.886 3.25578 37.0938 3.28762L39.971 3.70502C40.2141 3.73975 40.4173 3.90763 40.4978 4.1392C40.5736 4.37134 40.5082 4.62606 40.3299 4.79336L38.1648 6.8427Z" fill="#FFB21D"/>
<path d="M52.6394 6.8427C52.4895 6.98801 52.4206 7.19815 52.4547 7.40424L52.9694 10.2525C53.0128 10.4939 52.9109 10.7382 52.7089 10.8777C52.5109 11.0224 52.2475 11.0398 52.0316 10.924L49.4676 9.58673C49.3784 9.53926 49.2794 9.51379 49.1781 9.51089H49.0212C48.9668 9.519 48.9135 9.53636 48.8649 9.56299L46.3004 10.9066C46.1736 10.9703 46.03 10.9929 45.8893 10.9703C45.5466 10.9055 45.3179 10.579 45.3741 10.2345L45.8893 7.3863C45.9235 7.17847 45.8546 6.96717 45.7047 6.81954L43.6142 4.79336C43.4394 4.62374 43.3786 4.36902 43.4585 4.1392C43.5361 3.90995 43.7341 3.74265 43.9731 3.70502L46.8503 3.28762C47.0691 3.26505 47.2613 3.1319 47.3598 2.93507L48.6276 0.335767C48.6577 0.277876 48.6965 0.224617 48.7433 0.179462L48.7955 0.138938C48.8227 0.108835 48.8539 0.0839418 48.8887 0.06368L48.9518 0.0405236L49.0502 0H49.2939C49.5116 0.0225774 49.7032 0.152832 49.8033 0.347345L51.0879 2.93507C51.1806 3.12437 51.3606 3.25578 51.5684 3.28762L54.4456 3.70502C54.6887 3.73975 54.8919 3.90763 54.9724 4.1392C55.0482 4.37134 54.9828 4.62606 54.8045 4.79336L52.6394 6.8427Z" fill="#FFB21D"/>
<path d="M67.114 6.8427C66.9641 6.98801 66.8952 7.19815 66.9293 7.40424L67.444 10.2525C67.4874 10.4939 67.3855 10.7382 67.1835 10.8777C66.9855 11.0224 66.7221 11.0398 66.5062 10.924L63.9422 9.58673C63.853 9.53926 63.754 9.51379 63.6527 9.51089H63.4958C63.4414 9.519 63.3882 9.53636 63.3395 9.56299L60.775 10.9066C60.6482 10.9703 60.5046 10.9929 60.3639 10.9703C60.0212 10.9055 59.7926 10.579 59.8487 10.2345L60.3639 7.3863C60.3981 7.17847 60.3292 6.96717 60.1793 6.81954L58.0888 4.79336C57.914 4.62374 57.8532 4.36902 57.9331 4.1392C58.0107 3.90995 58.2087 3.74265 58.4477 3.70502L61.3249 3.28762C61.5438 3.26505 61.736 3.1319 61.8344 2.93507L63.1022 0.335767C63.1323 0.277876 63.1711 0.224617 63.218 0.179462L63.2701 0.138938C63.2973 0.108835 63.3285 0.0839418 63.3633 0.06368L63.4264 0.0405236L63.5248 0H63.7685C63.9862 0.0225774 64.1778 0.152832 64.2779 0.347345L65.5625 2.93507C65.6552 3.12437 65.8352 3.25578 66.043 3.28762L68.9202 3.70502C69.1634 3.73975 69.3665 3.90763 69.447 4.1392C69.5229 4.37134 69.4574 4.62606 69.2791 4.79336L67.114 6.8427Z" fill="#BFC5CA"/>
</svg>
