<svg width="25" height="24" viewBox="0 0 25 24" fill="none" xmlns="http://www.w3.org/2000/svg">
<path d="M21.4678 3.47313L14.1996 0.341915C13.133 -0.113972 11.5206 -0.113972 10.4539 0.341915L3.18568 3.47313C1.35002 4.26493 1.07715 5.34466 1.07715 5.92052C1.07715 6.49638 1.35002 7.57611 3.18568 8.36791L10.4539 11.4991C10.9872 11.7271 11.657 11.847 12.3268 11.847C12.9965 11.847 13.6663 11.7271 14.1996 11.4991L21.4678 8.36791C23.3035 7.57611 23.5764 6.49638 23.5764 5.92052C23.5764 5.34466 23.3159 4.26493 21.4678 3.47313Z" fill="white"/>
<path opacity="0.4" d="M12.3265 18.0495C11.8552 18.0495 11.3839 17.9536 10.9498 17.7736L2.59008 14.1745C1.31256 13.6226 0.320312 12.147 0.320312 10.7913C0.320312 10.2995 0.729615 9.90356 1.23814 9.90356C1.74667 9.90356 2.15597 10.2995 2.15597 10.7913C2.15597 11.4392 2.71411 12.279 3.33427 12.5429L11.694 16.142C12.0909 16.31 12.5498 16.31 12.9467 16.142L21.3064 12.5429C21.9265 12.279 22.4847 11.4512 22.4847 10.7913C22.4847 10.2995 22.894 9.90356 23.4025 9.90356C23.911 9.90356 24.3203 10.2995 24.3203 10.7913C24.3203 12.135 23.3281 13.6226 22.0505 14.1745L13.6909 17.7736C13.2692 17.9536 12.7978 18.0495 12.3265 18.0495Z" fill="white"/>
<path opacity="0.4" d="M12.3265 24C11.8552 24 11.3839 23.904 10.9498 23.724L2.59008 20.1249C1.21334 19.5371 0.320312 18.2054 0.320312 16.7418C0.320312 16.2499 0.729615 15.854 1.23814 15.854C1.74667 15.854 2.15597 16.2499 2.15597 16.7418C2.15597 17.4976 2.61489 18.1814 3.33427 18.4933L11.694 22.0924C12.0909 22.2604 12.5498 22.2604 12.9467 22.0924L21.3064 18.4933C22.0133 18.1934 22.4847 17.4976 22.4847 16.7418C22.4847 16.2499 22.894 15.854 23.4025 15.854C23.911 15.854 24.3203 16.2499 24.3203 16.7418C24.3203 18.2054 23.4273 19.5251 22.0505 20.1249L13.6909 23.724C13.2692 23.904 12.7978 24 12.3265 24Z" fill="white"/>
</svg>
