<svg width="41" height="34" viewBox="0 0 41 34" fill="none" xmlns="http://www.w3.org/2000/svg">
<path d="M31.0881 4.37585C29.6006 3.33696 27.7825 2.73094 25.8307 2.73094C22.0686 2.73094 18.826 4.98186 17.4015 8.22446C16.8742 8.22446 16.2524 8.23233 16.1816 8.23233C13.0334 8.23233 10.4834 10.7823 10.4834 13.9305C10.4834 14.0092 10.5307 14.2532 10.6015 14.568L10.5385 14.5995H10.5228C10.3496 14.5837 10.1607 14.5758 9.97973 14.5758C5.76908 14.5758 2.40056 18.1726 2.77047 22.4698C2.86491 23.5717 3.24269 24.6184 3.8251 25.5314C1.97556 24.3194 0.6376 22.3596 0.448711 20.1481C0.0788033 15.8508 3.44732 12.2541 7.65797 12.2541C7.83899 12.2541 8.02788 12.262 8.20103 12.2777H8.21677L8.27973 12.2462C8.2089 11.9314 8.16167 11.6874 8.16167 11.6087C8.16167 8.46844 10.7117 5.91057 13.8598 5.91057C13.9307 5.91057 14.5524 5.9027 15.0797 5.9027C16.5043 2.66011 19.7469 0.40918 23.5089 0.40918C26.6492 0.41705 29.4195 1.98325 31.0881 4.37585Z" fill="white" fill-opacity="0.7"/>
<path d="M19.3928 29.081L16.0479 33.3468C15.796 33.6616 15.3159 33.6616 15.072 33.3468L11.7271 29.081C11.4044 28.6718 11.6956 28.0736 12.215 28.0736H13.5372V19.1801C13.5372 18.8338 13.8127 18.5583 14.159 18.5583H16.9609C17.3071 18.5583 17.5826 18.8338 17.5826 19.1801V28.0658H18.9048C19.4243 28.0736 19.7155 28.6718 19.3928 29.081Z" fill="white"/>
<path d="M20.9038 23.0683L24.2487 18.8025C24.5006 18.4877 24.9807 18.4877 25.2246 18.8025L28.5696 23.0683C28.8922 23.4775 28.601 24.0757 28.0816 24.0757H26.7594V32.9613C26.7594 33.3076 26.4839 33.5831 26.1376 33.5831H23.3358C22.9895 33.5831 22.714 33.3076 22.714 32.9613V24.0757H21.3918C20.8723 24.0757 20.5811 23.4775 20.9038 23.0683Z" fill="white"/>
<path d="M14.3004 10.0505C14.5287 10.0505 14.7176 9.86157 14.7176 9.63333C14.7176 4.78518 18.6606 0.84213 23.5088 0.84213C28.0736 0.84213 31.8356 4.26574 32.2685 8.79907C32.2921 9.02731 32.4889 9.20046 32.725 9.17685C32.9532 9.15324 33.1264 8.94861 33.1027 8.72037C32.6384 3.7463 28.5143 0 23.5166 0C18.2041 0 13.8833 4.32083 13.8833 9.63333C13.8833 9.86157 14.0722 10.0505 14.3004 10.0505Z" fill="white"/>
<path d="M21.0376 26.3264H20.1246C19.8964 26.3264 19.7075 26.5153 19.7075 26.7435C19.7075 26.9718 19.8964 27.1607 20.1246 27.1607H21.0376C21.2659 27.1607 21.4547 26.9718 21.4547 26.7435C21.4547 26.5074 21.2737 26.3264 21.0376 26.3264Z" fill="white"/>
<path d="M11.412 26.7433C11.412 26.5151 11.2231 26.3262 10.9949 26.3262H7.65787C3.89583 26.3262 0.834259 23.2646 0.834259 19.5026C0.834259 15.7406 3.89583 12.6711 7.65787 12.6711C7.89398 12.6711 8.02778 12.6869 8.18519 12.6947C8.38982 12.7026 8.61019 12.5531 8.6338 12.317C8.64167 12.191 8.5787 12.1359 8.5787 11.6086C8.5787 8.90122 10.6093 6.64242 13.3009 6.35909C13.5292 6.33548 13.7023 6.13085 13.6708 5.89474C13.6472 5.6665 13.4426 5.50122 13.2065 5.52483C9.94815 5.87112 7.60278 8.68085 7.73657 11.8369C3.47083 11.7818 0 15.2605 0 19.5026C0 23.729 3.43935 27.1605 7.65787 27.1605H10.987C11.2231 27.1605 11.412 26.9716 11.412 26.7433Z" fill="white"/>
<path d="M31.694 9.96375C28.5852 9.96375 25.7126 11.648 24.1936 14.3554C24.0834 14.56 24.1542 14.8119 24.351 14.9299C24.5556 15.0401 24.8075 14.9693 24.9255 14.7725C26.295 12.3249 28.8922 10.8059 31.694 10.8059C35.9755 10.8059 39.4542 14.2846 39.4542 18.5661C39.4542 22.8475 35.9755 26.3262 31.694 26.3262H28.4357C28.2075 26.3262 28.0186 26.5151 28.0186 26.7434C28.0186 26.9716 28.2075 27.1605 28.4357 27.1605H31.694C36.4399 27.1605 40.2964 23.304 40.2964 18.5582C40.2964 13.8202 36.4399 9.96375 31.694 9.96375Z" fill="white"/>
<path d="M18.9046 27.6565H17.9995V19.1801C17.9995 18.6056 17.5351 18.1412 16.9606 18.1412H14.1587C13.5842 18.1412 13.1198 18.6056 13.1198 19.1801V27.6486H12.2147C11.8134 27.6486 11.4513 27.8769 11.2782 28.2311C11.105 28.5931 11.1444 29.0102 11.3962 29.3329L14.7411 33.5986C14.9379 33.8505 15.237 34 15.5597 34C15.8823 34 16.1814 33.8584 16.3782 33.5986L19.7231 29.3329C19.9749 29.0181 20.0143 28.5931 19.8411 28.2311C19.668 27.8769 19.306 27.6565 18.9046 27.6565ZM19.062 28.8213L15.7171 33.0871C15.662 33.1579 15.5911 33.1658 15.5597 33.1658C15.5203 33.1658 15.4495 33.1579 15.4023 33.0871L12.0573 28.8213C11.9865 28.7348 12.018 28.6403 12.0337 28.6088C12.0495 28.5773 12.1046 28.4986 12.2147 28.4986H13.537C13.7652 28.4986 13.9541 28.3098 13.9541 28.0815V19.1801C13.9541 19.0699 14.0485 18.9755 14.1587 18.9755H16.9606C17.0708 18.9755 17.1652 19.0699 17.1652 19.1801V28.0658C17.1652 28.294 17.3541 28.4829 17.5823 28.4829H18.9046C19.0226 28.4829 19.0698 28.5616 19.0856 28.5931C19.1013 28.6403 19.1328 28.7269 19.062 28.8213Z" fill="white"/>
<path d="M29.0257 23.9102C29.1989 23.5482 29.1595 23.131 28.9077 22.8084L25.5627 18.5426C25.366 18.2908 25.0669 18.1412 24.7442 18.1412C24.4215 18.1412 24.1225 18.2829 23.9257 18.5426L20.5808 22.8084C20.329 23.1232 20.2896 23.5482 20.4627 23.9102C20.6359 24.2723 20.9979 24.4926 21.3993 24.4926H22.3044V32.9611C22.3044 33.5357 22.7688 34 23.3433 34H26.1452C26.7197 34 27.184 33.5357 27.184 32.9611V24.4926H28.0891C28.4905 24.4926 28.8447 24.2644 29.0257 23.9102ZM26.759 23.6505C26.5308 23.6505 26.3419 23.8394 26.3419 24.0676V32.9533C26.3419 33.0635 26.2475 33.1579 26.1373 33.1579H23.3354C23.2252 33.1579 23.1308 33.0635 23.1308 32.9533V24.0755C23.1308 23.8473 22.9419 23.6584 22.7137 23.6584H21.3914C21.2734 23.6584 21.2262 23.5797 21.2104 23.5482C21.1947 23.5167 21.1632 23.4223 21.234 23.3357L24.5789 19.0699C24.634 18.9991 24.7049 18.9912 24.7364 18.9912C24.7757 18.9912 24.8465 18.9991 24.8938 19.0699L28.2387 23.3357C28.3095 23.4223 28.278 23.5167 28.2623 23.5482C28.2465 23.5797 28.1915 23.6584 28.0813 23.6584H26.759V23.6505Z" fill="white"/>
</svg>
