<svg width="15" height="15" viewBox="0 0 15 15" fill="none" xmlns="http://www.w3.org/2000/svg">
<path d="M8.74422 2.63127C9.19134 2.14685 9.41489 1.90464 9.65245 1.76336C10.2256 1.42246 10.9315 1.41185 11.5142 1.73539C11.7557 1.86948 11.9862 2.10487 12.447 2.57566C12.9079 3.04644 13.1383 3.28183 13.2696 3.52856C13.5863 4.12387 13.5759 4.84487 13.2422 5.43042C13.1039 5.67309 12.8668 5.90146 12.3926 6.35821L6.75038 11.7926C5.85173 12.6581 5.4024 13.0909 4.84084 13.3102C4.27927 13.5296 3.66192 13.5134 2.42722 13.4811L2.25923 13.4768C1.88334 13.4669 1.6954 13.462 1.58615 13.338C1.4769 13.214 1.49182 13.0226 1.52165 12.6397L1.53785 12.4318C1.6218 11.3541 1.66378 10.8153 1.87422 10.3309C2.08466 9.84657 2.44766 9.45328 3.17366 8.6667L8.74422 2.63127Z" stroke="white" stroke-width="1.5" stroke-linejoin="round"/>
<path d="M8.09375 2.69922L12.2938 6.89922" stroke="white" stroke-width="1.5" stroke-linejoin="round"/>
<path d="M8.69531 13.5L13.4953 13.5" stroke="white" stroke-width="1.5" stroke-linecap="round" stroke-linejoin="round"/>
</svg>
