<svg width="13" height="13" viewBox="0 0 13 13" fill="none" xmlns="http://www.w3.org/2000/svg">
<path opacity="0.4" d="M0.486178 4.6454C0.804758 4.13828 1.16885 3.68316 1.54594 3.27356L3.99706 5.72467C3.91904 5.96523 3.87352 6.2253 3.87352 6.49837C3.87352 7.95473 5.05032 9.12502 6.50018 9.12502C6.77325 9.12502 7.03331 9.07951 7.27387 9.00149L9.52344 11.2511C8.5742 11.7842 7.54694 12.0638 6.50018 12.0638C5.34289 12.0638 4.21811 11.7257 3.19085 11.095C2.1636 10.4579 1.24037 9.52812 0.486178 8.34483C-0.163983 7.33057 -0.163983 5.66616 0.486178 4.6454Z" fill="#24A148"/>
<path d="M5.18268 5.18493L7.80933 7.81159C8.14092 7.4735 8.35547 7.00539 8.35547 6.49826C8.35547 5.4775 7.52326 4.63879 6.496 4.63879C5.98888 4.63879 5.52076 4.85335 5.18268 5.18493Z" fill="#24A148"/>
<path d="M2.43486 2.43465L4.63891 4.6387C5.11353 4.15758 5.77019 3.87151 6.49837 3.87151C7.95474 3.87151 9.12503 5.0483 9.12503 6.49816C9.12503 7.22634 8.83246 7.88301 8.35784 8.35763L10.5554 10.5617H10.5619C11.2836 9.97653 11.9467 9.22884 12.5124 8.34462C13.1625 7.32387 13.1625 5.66595 12.5124 4.6452C11.7582 3.4619 10.835 2.53217 9.8077 1.89501C8.78045 1.27086 7.65566 0.92627 6.49837 0.92627C5.04851 0.92627 3.64416 1.4594 2.43486 2.43465Z" fill="#24A148"/>
<path opacity="0.4" d="M4.63938 6.49859C4.63938 7.51934 5.47159 8.35805 6.49885 8.35805C6.53786 8.35805 6.57037 8.35805 6.60938 8.34505L4.65239 6.38806C4.63938 6.42707 4.63938 6.45958 4.63938 6.49859Z" fill="#24A148"/>
<path d="M0.145631 0.146287C0.340679 -0.0487622 0.659259 -0.0487622 0.854308 0.146287L12.8498 12.1483C13.0449 12.3433 13.0449 12.6619 12.8498 12.857C12.7523 12.948 12.6288 13 12.4987 13C12.3687 13 12.2452 12.948 12.1476 12.8505L0.145631 0.848462C-0.0559196 0.653413 -0.0559196 0.341335 0.145631 0.146287Z" fill="#24A148"/>
</svg>
