<svg width="14" height="14" viewBox="0 0 14 14" fill="none" xmlns="http://www.w3.org/2000/svg">
<path d="M0.52538 5.00264C0.868466 4.4565 1.26056 3.96638 1.66667 3.52527L4.30632 6.16493C4.2223 6.42399 4.17329 6.70406 4.17329 6.99814C4.17329 8.56653 5.44061 9.82684 7.002 9.82684C7.29607 9.82684 7.57614 9.77783 7.83521 9.69381L10.2578 12.1164C9.23556 12.6906 8.12928 12.9916 7.002 12.9916C5.75569 12.9916 4.54438 12.6275 3.43811 11.9484C2.33183 11.2622 1.33758 10.261 0.52538 8.98663C-0.174794 7.89436 -0.174794 6.10191 0.52538 5.00264Z" fill="#BCBDBF"/>
<path d="M5.58315 5.58363L8.41185 8.41234C8.76894 8.04825 9 7.54412 9 6.99798C9 5.89871 8.10378 4.99548 6.9975 4.99548C6.45136 4.99548 5.94724 5.22654 5.58315 5.58363Z" fill="#57595F"/>
<path d="M2.62216 2.62196L4.99575 4.99556C5.50688 4.47743 6.21405 4.16935 6.99825 4.16935C8.56664 4.16935 9.82696 5.43667 9.82696 6.99806C9.82696 7.78225 9.51188 8.48943 9.00075 9.00056L11.3673 11.3742H11.3743C12.1515 10.744 12.8657 9.93879 13.4749 8.98656C14.175 7.88728 14.175 6.10183 13.4749 5.00256C12.6627 3.72824 11.6684 2.72699 10.5621 2.04082C9.45586 1.36865 8.24456 0.997559 6.99825 0.997559C5.43686 0.997559 3.92448 1.5717 2.62216 2.62196Z" fill="#57595F"/>
<path d="M4.99566 6.99867C4.99566 8.09794 5.89188 9.00117 6.99816 9.00117C7.04017 9.00117 7.07518 9.00117 7.11719 8.98717L5.00966 6.87964C4.99566 6.92165 4.99566 6.95666 4.99566 6.99867Z" fill="#BCBDBF"/>
<path d="M0.157133 0.157539C0.367186 -0.0525131 0.710272 -0.0525131 0.920324 0.157539L13.8386 13.0828C14.0486 13.2928 14.0486 13.6359 13.8386 13.846C13.7335 13.944 13.6005 14 13.4605 14C13.3204 14 13.1874 13.944 13.0824 13.839L0.157133 0.913728C-0.0599213 0.703676 -0.0599213 0.367592 0.157133 0.157539Z" fill="#57595F"/>
</svg>
