<svg width="15" height="12" viewBox="0 0 15 12" fill="none" xmlns="http://www.w3.org/2000/svg">
<path d="M13.4851 4.007C11.8669 1.4641 9.49912 0 7.00525 0C5.75832 0 4.54641 0.364273 3.43958 1.04378C2.33275 1.7303 1.338 2.73205 0.525394 4.007C-0.175131 5.10683 -0.175131 6.89317 0.525394 7.99299C2.14361 10.5429 4.51138 12 7.00525 12C8.25219 12 9.4641 11.6357 10.5709 10.9562C11.6778 10.2697 12.6725 9.26795 13.4851 7.99299C14.1856 6.90018 14.1856 5.10683 13.4851 4.007ZM7.00525 8.83363C5.43608 8.83363 4.17513 7.56567 4.17513 6.0035C4.17513 4.44133 5.43608 3.17338 7.00525 3.17338C8.57443 3.17338 9.83538 4.44133 9.83538 6.0035C9.83538 7.56567 8.57443 8.83363 7.00525 8.83363Z" fill="#24A148"/>
<path opacity="0.4" d="M7.00431 3.99976C5.90449 3.99976 5.00781 4.89643 5.00781 6.00326C5.00781 7.10308 5.90449 7.99976 7.00431 7.99976C8.10413 7.99976 9.00781 7.10308 9.00781 6.00326C9.00781 4.90343 8.10413 3.99976 7.00431 3.99976Z" fill="#24A148"/>
</svg>
