<svg width="13" height="15" viewBox="0 0 13 15" fill="none" xmlns="http://www.w3.org/2000/svg">
<path d="M1 6.2C1 3.7487 1 2.52304 1.80912 1.76152C2.61823 1 3.92049 1 6.525 1H7.02727C9.14706 1 10.2069 1 10.943 1.51859C11.1539 1.66718 11.3411 1.84339 11.499 2.04188C12.05 2.73464 12.05 3.73218 12.05 5.72727V7.38182C12.05 9.30788 12.05 10.2709 11.7452 11.0401C11.2552 12.2766 10.2189 13.2519 8.90507 13.7131C8.08784 14 7.06462 14 5.01818 14C3.84879 14 3.26409 14 2.7971 13.8361C2.04636 13.5725 1.45419 13.0152 1.17418 12.3086C1 11.8691 1 11.3188 1 10.2182V6.2Z" stroke="#52565F" stroke-linejoin="round"/>
<path d="M12.0469 7.5C12.0469 8.69662 11.0768 9.66667 9.88021 9.66667C9.44745 9.66667 8.93725 9.59084 8.51649 9.70358C8.14264 9.80375 7.85063 10.0958 7.75046 10.4696C7.63771 10.8904 7.71354 11.4006 7.71354 11.8333C7.71354 13.03 6.74349 14 5.54688 14" stroke="#52565F" stroke-linecap="round" stroke-linejoin="round"/>
<path d="M3.92188 4.25049H8.47187" stroke="#52565F" stroke-linecap="round" stroke-linejoin="round"/>
<path d="M3.92188 6.84937H5.87187" stroke="#52565F" stroke-linecap="round" stroke-linejoin="round"/>
</svg>
