<svg width="16" height="15" viewBox="0 0 16 15" fill="none" xmlns="http://www.w3.org/2000/svg">
<path d="M10.8953 5.10498C12.0471 5.10498 13.1517 5.56253 13.9661 6.37696C14.7806 7.19139 15.2381 8.29601 15.2381 9.44779V14.5144H12.3429V9.44779C12.3429 9.06386 12.1904 8.69566 11.9189 8.42418C11.6474 8.1527 11.2792 8.00019 10.8953 8.00019C10.5114 8.00019 10.1432 8.1527 9.87169 8.42418C9.60021 8.69566 9.4477 9.06386 9.4477 9.44779V14.5144H6.55249V9.44779C6.55249 8.29601 7.01004 7.19139 7.82447 6.37696C8.6389 5.56253 9.74352 5.10498 10.8953 5.10498Z" fill="#006699"/>
<path d="M3.65693 5.82812H0.761719V14.5137H3.65693V5.82812Z" fill="#006699"/>
<path d="M2.20932 3.65692C3.00881 3.65692 3.65693 3.00881 3.65693 2.20932C3.65693 1.40983 3.00881 0.761719 2.20932 0.761719C1.40983 0.761719 0.761719 1.40983 0.761719 2.20932C0.761719 3.00881 1.40983 3.65692 2.20932 3.65692Z" fill="#006699"/>
</svg>
