<svg width="17" height="14" viewBox="0 0 17 14" fill="none" xmlns="http://www.w3.org/2000/svg">
<path d="M16.3874 0.673114C15.7114 1.14994 14.9629 1.51464 14.1708 1.75316C13.7457 1.26432 13.1806 0.917848 12.5522 0.760595C11.9237 0.603342 11.2621 0.642898 10.6568 0.873913C10.0516 1.10493 9.53186 1.51626 9.168 2.05227C8.80413 2.58828 8.61365 3.22311 8.62234 3.8709V4.57681C7.38179 4.60898 6.15254 4.33384 5.04407 3.77591C3.9356 3.21798 2.98232 2.39458 2.26912 1.37903C2.26912 1.37903 -0.554525 7.73224 5.79869 10.5559C4.34488 11.5427 2.61301 12.0375 0.8573 11.9677C7.21051 15.4973 14.9755 11.9677 14.9755 3.84972C14.9749 3.65309 14.956 3.45695 14.9191 3.26381C15.6395 2.55331 16.1479 1.65625 16.3874 0.673114Z" fill="#33CCFF"/>
</svg>
