<svg width="18" height="12" viewBox="0 0 18 12" fill="none" xmlns="http://www.w3.org/2000/svg">
<path d="M16.8036 2.35668C16.6171 1.65538 16.0652 1.10214 15.3631 0.912525C14.0937 0.572266 9.00016 0.572266 9.00016 0.572266C9.00016 0.572266 3.90925 0.572266 2.63717 0.912525C1.93766 1.09954 1.38582 1.65278 1.19669 2.35668C0.8573 3.62941 0.8573 6.28655 0.8573 6.28655C0.8573 6.28655 0.8573 8.94369 1.19669 10.2164C1.38323 10.9177 1.93507 11.471 2.63717 11.6606C3.90925 12.0008 9.00016 12.0008 9.00016 12.0008C9.00016 12.0008 14.0937 12.0008 15.3631 11.6606C16.0627 11.4736 16.6145 10.9203 16.8036 10.2164C17.143 8.94369 17.143 6.28655 17.143 6.28655C17.143 6.28655 17.143 3.62941 16.8036 2.35668Z" fill="#FF3000"/>
<path d="M7.37314 8.7359L11.6039 6.28655L7.37314 3.8372V8.7359Z" fill="white"/>
</svg>
